<?xml version="1.0" encoding="utf-8"?>
<svg viewBox="710.10009765625 613.4000244140625 291.599853515625 291.39990234375" width="291.599853515625" height="291.39990234375" xmlns="http://www.w3.org/2000/svg"><g transform="matrix(1, 0, 0, 1, 0, 0)">
	<path class="st12" d="M977.5,764.8c-2.7-2.3-5.6-4.4-8.6-6.4c11.7-7.8,21.8-17.7,28.6-32.1c3.8-8.1,2.5-18-4.4-24.1&#10;&#9;&#9;c-23-20.7-46.7-19.7-68.5-9.1c8.5-21.9,7.9-44.6-12.1-64.1c-16-15.6-38.6-5.8-51,8.5c-2.3,2.7-4.4,5.6-6.4,8.6&#10;&#9;&#9;c-7.8-11.7-17.7-21.8-32.1-28.6c-8.1-3.8-18-2.5-24.1,4.4c-20.7,23-19.7,46.7-9.1,68.5c-21.9-8.5-44.6-7.9-64.1,12.1&#10;&#9;&#9;c-15.6,16-5.8,38.6,8.6,51c2.7,2.3,5.6,4.4,8.6,6.4c-11.7,7.8-21.8,17.7-28.6,32.1c-3.8,8.1-2.5,18,4.4,24.1&#10;&#9;&#9;c23,20.7,46.7,19.7,68.5,9c-8.5,21.9-7.9,44.6,12.1,64.1c16,15.6,38.6,5.8,51-8.5c2.3-2.7,4.4-5.6,6.4-8.6&#10;&#9;&#9;c7.8,11.7,17.7,21.8,32.1,28.6c8.1,3.8,18,2.5,24.1-4.4c20.7-23,19.7-46.7,9.1-68.5c21.9,8.5,44.6,7.9,64.1-12.1&#10;&#9;&#9;C1001.7,799.8,991.9,777.2,977.5,764.8z" style="fill: rgb(196, 104, 95);"/>
	<path class="st13" d="M923.8,762.3c-1.5-1.3-3.1-2.5-4.8-3.6c6.6-4.4,12.2-9.9,16-17.9c2.1-4.5,1.4-10-2.4-13.5&#10;&#9;&#9;c-12.9-11.5-26-11-38.2-5c4.8-12.2,4.4-24.9-6.7-35.8c-8.9-8.7-21.6-3.2-28.5,4.8c-1.3,1.5-2.5,3.1-3.6,4.8&#10;&#9;&#9;c-4.4-6.5-9.9-12.2-17.9-16c-4.5-2.1-10-1.4-13.4,2.4c-11.5,12.9-11,26-5.1,38.2c-12.2-4.7-24.9-4.4-35.8,6.7&#10;&#9;&#9;c-8.7,8.9-3.2,21.6,4.8,28.5c1.5,1.3,3.1,2.5,4.8,3.6c-6.5,4.4-12.2,9.9-15.9,17.9c-2.1,4.5-1.4,10,2.4,13.4&#10;&#9;&#9;c12.9,11.5,26,11,38.2,5.1c-4.8,12.2-4.4,24.9,6.7,35.8c8.9,8.7,21.6,3.2,28.5-4.8c1.3-1.5,2.5-3.1,3.6-4.8&#10;&#9;&#9;c4.4,6.5,9.9,12.2,17.9,16c4.5,2.1,10,1.4,13.5-2.5c11.5-12.8,11-26,5.1-38.2c12.2,4.7,24.9,4.4,35.8-6.7&#10;&#9;&#9;C937.3,781.9,931.8,769.2,923.8,762.3z" style="fill: rgb(233, 217, 151);"/>
	<path class="st12" d="M856,736.5c-33,0-33,43,0,43C880,779.5,880,736.5,856,736.5z" style="fill: rgb(196, 104, 95);"/>
</g></svg>