<?xml version="1.0" encoding="utf-8"?>
<svg viewBox="367.6999816894531 141.40000915527344 98.39999389648438 92.39999389648438" width="98.39999389648438" height="92.39999389648438" xmlns="http://www.w3.org/2000/svg" xmlns:xlink="http://www.w3.org/1999/xlink"><clipPath id="XMLID_396_">
		<use style="overflow:visible;" xlink:href="#XMLID_394_"/>
	</clipPath><defs><path d="M -0.6 0 H 500.000006 V 500.600006 H -0.6 V 0 Z" id="XMLID_394_"/></defs><g id="XMLID_258_" class="st0" transform="matrix(1, 0, 0, 1, 0, 0)" style="clip-path: url('#XMLID_396_');">
		<path id="XMLID_265_" class="st6" d="M433.1,183.3c6.9-2.3,15.6-5.3,19.8-11.7c2.9-4.4,4.2-12.9-0.5-16.6&#10;&#9;&#9;&#9;c-12.5-9.9-20.6,13-23.8,20.3c2.3-5.4,12.6-33.9-3.8-30.6c-10.1,2-8,19.2-11,27.2c-0.2-7.2-4.9-28.5-16.7-24&#10;&#9;&#9;&#9;c-13.3,5.1,0,25.2,4.4,31.1c-9.3-3.9-33.8-6.3-28.5,11.9c1.9,6.6,8.7,7.3,14.5,7.3c7.1,0,10.5-3.2,16.9-5&#10;&#9;&#9;&#9;c-8.3,4.4-29.8,21.2-14.4,31.1c14.7,9.5,22.6-13.5,25.1-23.1c0.1,8.2-1.7,30.6,13,27.6c13.4-2.8,5.4-25.2,0.1-32&#10;&#9;&#9;&#9;c7,7.5,27,22,32.5,4.7C466.1,184.3,444.9,180.1,433.1,183.3z M448.3,198.1c-4.1,7-15.8-0.7-20.3-6.2c-1.2,1.4-2.7,2.5-4.4,3.4&#10;&#9;&#9;&#9;c2.9,6,5.1,13.9,2.8,19.7c-5.8,1.4-8.1-10.9-8.8-18c-0.8,0.1-1.7,0-2.5,0c-1.2-0.1-2.2-0.4-3.1-0.7c-3.4,6.8-7.2,16.6-15,14.5&#10;&#9;&#9;&#9;c-2.1-7.8,7.1-11.4,11.7-16.6c-1.6-1.6-2.4-3.7-2.6-6c-7.6,1.8-22.2,7.1-23.5,1.4c-2.3-10.4,16.7-5.8,23.6-4.4&#10;&#9;&#9;&#9;c0.2-1.6,0.7-3.2,1.5-4.7c-4.2-5.6-12.1-18.8-8-22.1c4.5-3.5,9.4,10.6,11.6,17.6c0.6-0.5,1.2-0.9,1.9-1.2c1.5-1.5,3.4-2.4,5.5-2.6&#10;&#9;&#9;&#9;c0.2-6.6,1.1-20.7,7.3-17.5c3.7,2,1.2,12.1-1.1,18.7c0.6,0.3,1.2,0.7,1.8,1.2c0.6,0.5,1.1,1,1.5,1.5c5.1-5.9,13.3-14.6,15.9-10.1&#10;&#9;&#9;&#9;c3.1,5.3-7.8,11.4-13.2,15c0.6,2.2,0.4,4.4-0.3,6.5C437.9,188.5,452.1,191.6,448.3,198.1z" style="fill: rgb(132, 199, 121);"/>
		<path id="XMLID_264_" class="st7" d="M408.7,194.1c-4.7,5.2-13.8,8.8-11.7,16.6c7.8,2,11.6-7.7,15-14.5&#10;&#9;&#9;&#9;C410.6,195.7,409.5,195,408.7,194.1z" style="fill: rgb(247, 208, 138);"/>
		<path id="XMLID_263_" class="st5" d="M426.4,215c2.3-5.8,0.1-13.6-2.8-19.7c-1.8,0.9-3.9,1.5-6,1.7&#10;&#9;&#9;&#9;C418.2,204.2,420.5,216.4,426.4,215z" style="fill: rgb(211, 194, 120);"/>
		<path id="XMLID_262_" class="st5" d="M411.4,175.8c-2.2-7-7.2-21.1-11.6-17.6c-4.1,3.3,3.8,16.5,8,22.1&#10;&#9;&#9;&#9;C408.6,178.6,409.8,177.1,411.4,175.8z" style="fill: rgb(211, 194, 120);"/>
		<path id="XMLID_261_" class="st7" d="M425,173.2c2.3-6.6,4.8-16.7,1.1-18.7c-6.2-3.3-7.1,10.9-7.3,17.5&#10;&#9;&#9;&#9;C420.9,171.8,423.1,172.2,425,173.2z" style="fill: rgb(247, 208, 138);"/>
		<path id="XMLID_260_" class="st5" d="M406.2,185.1c-6.9-1.4-25.8-6-23.6,4.4c1.3,5.7,15.9,0.4,23.5-1.4&#10;&#9;&#9;&#9;C406,187.1,406.1,186.1,406.2,185.1z" style="fill: rgb(211, 194, 120);"/>
		<path id="XMLID_259_" class="st7" d="M430.8,187.3c-0.6,1.7-1.5,3.3-2.8,4.7c4.5,5.5,16.2,13.2,20.3,6.2&#10;&#9;&#9;&#9;C452.1,191.6,437.9,188.5,430.8,187.3z" style="fill: rgb(247, 208, 138);"/>
		<path id="XMLID_268_" class="st5" d="M444.2,165.8c-2.7-4.5-10.8,4.2-15.9,10.1c1.4,1.5,2.3,3.2,2.7,4.8&#10;&#9;&#9;&#9;C436.5,177.2,447.4,171.1,444.2,165.8z" style="fill: rgb(211, 194, 120);"/>
	</g></svg>