<?xml version="1.0" encoding="utf-8"?>
<svg viewBox="592.9000244140625 4.199987888336182 178.0999755859375 168.49998474121094" width="178.0999755859375" height="168.49998474121094" xmlns="http://www.w3.org/2000/svg"><g transform="matrix(1, 0, 0, 1, 5.684341886080802e-14, 1.4210854715202004e-14)">
		<g>
			<g>
				<path class="st11" d="M765.8,89.7c-5.8-6-16.4-7.3-24.2-8.3c-6.3-0.8-13.3-1.5-20.3-1.3c-2.4,0.1-4.7,0.2-7.1,0.5&#10;&#9;&#9;&#9;&#9;&#9;c13.2-14.1,23.2-31.4,33.1-48.2c3.1-5.3-1.5-10.8-6.9-10.7c-0.5,0-1,0.1-1.6,0.2c-20.5,4.8-36.1,18-47.5,34.6&#10;&#9;&#9;&#9;&#9;&#9;c0-0.6-0.1-1.2-0.1-1.9c-1.3-15.3-4.3-31-10.1-45.2c-1.3-3.1-4.6-5.2-7.8-5.2c-2.2,0-4.3,1.2-5.5,3.7&#10;&#9;&#9;&#9;&#9;&#9;c-6.3,13.4-10.2,29-10.1,44.2c-8.4-7-17.7-12.9-26.7-17.7c-1.2-0.6-2.5-0.9-3.6-0.9c-4.4,0.1-8,4.5-6.8,9.3&#10;&#9;&#9;&#9;&#9;&#9;c2.9,11.8,9,23.1,16.1,33.1c-0.6,0-1.2-0.1-1.8-0.1c-1,0-1.9,0-2.9,0c-12.7,0.3-28,3.4-36.4,13.2c-2.7,3.2-2.5,7.2,0.2,10.3&#10;&#9;&#9;&#9;&#9;&#9;c11,12.5,30.8,15.6,46.5,16.8c3.6,0.3,7.3,0.4,11.1,0.3c-0.6,0.8-1.3,1.6-2,2.4c-10.2,13.2-16,28.6-15.7,45.3&#10;&#9;&#9;&#9;&#9;&#9;c0.1,2.9,2.3,6.5,5.5,6.9c15.4,1.7,25-14.5,31.7-26c3.5-6,6.8-12.4,9.5-19.1c3.3,20.5,12,39.7,33.1,45.5c4.7,1.3,9-2.6,9-7.2&#10;&#9;&#9;&#9;&#9;&#9;c0.1-14.2-3.2-28.8-8.8-41.8c-2-4.7-4.5-9.3-7.3-13.6c6,2.4,12.3,3.8,18.6,4.5c9.5,1,18.7-0.6,27.9-3.1c4.2-1.2,9-2.6,12-5.9&#10;&#9;&#9;&#9;&#9;&#9;C771,100.1,769.7,93.7,765.8,89.7z" style="fill-rule: evenodd; clip-rule: evenodd; fill: rgb(255, 204, 51);"/>
			</g>
			<g>
				<path class="st21" d="M740.1,60.4c-6.2-2.3-14.4,0.4-20.4,2.4c-4.9,1.6-10.1,3.5-15.1,6c-1.7,0.9-3.4,1.8-5,2.8&#10;&#9;&#9;&#9;&#9;&#9;c4.7-14.7,6-30.7,7.3-46.2c0.4-4.9-4.8-7.3-8.6-5.4c-0.4,0.2-0.7,0.4-1.1,0.7c-13.2,10.5-19.9,25.4-22.4,41.4&#10;&#9;&#9;&#9;&#9;&#9;c-0.2-0.4-0.5-0.9-0.7-1.3c-6.2-10.6-13.8-20.9-22.9-29.2c-2-1.8-5.2-2.2-7.4-1c-1.6,0.8-2.7,2.3-2.7,4.6&#10;&#9;&#9;&#9;&#9;&#9;c0.1,11.9,2.6,24.5,7.9,35.5c-8.5-2.1-17.2-3.2-25.4-3.6c-1.1,0-2.1,0.2-2.9,0.6c-3.2,1.6-4.3,6-1.7,9.1&#10;&#9;&#9;&#9;&#9;&#9;c6.2,7.5,14.4,13.6,23,18.3c-0.5,0.2-0.9,0.4-1.4,0.6c-0.7,0.3-1.4,0.7-2.1,1c-9.1,4.6-19.1,12.1-21.8,22.1&#10;&#9;&#9;&#9;&#9;&#9;c-0.9,3.3,0.7,6,3.7,7.3c12.3,5.3,27.6,0.7,39.4-3.9c2.7-1,5.4-2.2,8.1-3.6c-0.2,0.8-0.4,1.6-0.6,2.4c-2.8,13-1.7,26.2,4.3,38.2&#10;&#9;&#9;&#9;&#9;&#9;c1,2.1,3.9,3.9,6.3,3.1c11.7-4,13.1-19.1,14-29.7c0.5-5.5,0.7-11.3,0.3-17.1c9.5,13.7,22.3,24.6,39.6,21.5&#10;&#9;&#9;&#9;&#9;&#9;c3.8-0.7,5.6-5,4.1-8.3c-4.8-10.3-12.2-19.7-20.7-27.2c-3.1-2.7-6.4-5.2-10-7.3c5.1-0.3,10.2-1.5,15-3.2&#10;&#9;&#9;&#9;&#9;&#9;c7.2-2.5,13.3-6.9,19.1-11.9c2.6-2.3,5.6-5,6.7-8.4C747.5,66.1,744.3,61.9,740.1,60.4z" style="fill-rule: evenodd; clip-rule: evenodd; fill: rgb(247, 147, 30);"/>
			</g>
			<g>
				<path class="st11" d="M704.1,80.2c-2.4-0.9-5.5,0.2-7.9,0.9c-1.9,0.6-3.9,1.4-5.8,2.3c-0.7,0.3-1.3,0.7-1.9,1.1&#10;&#9;&#9;&#9;&#9;&#9;c1.8-5.7,2.3-11.8,2.8-17.8c0.2-1.9-1.9-2.8-3.3-2.1c-0.1,0.1-0.3,0.2-0.4,0.3c-5.1,4.1-7.7,9.8-8.7,16&#10;&#9;&#9;&#9;&#9;&#9;c-0.1-0.2-0.2-0.3-0.3-0.5c-2.4-4.1-5.3-8.1-8.8-11.3c-0.8-0.7-2-0.8-2.9-0.4c-0.6,0.3-1,0.9-1,1.8c0,4.6,1,9.4,3,13.7&#10;&#9;&#9;&#9;&#9;&#9;c-3.3-0.8-6.6-1.3-9.8-1.4c-0.4,0-0.8,0.1-1.1,0.2c-1.2,0.6-1.6,2.3-0.7,3.5c2.4,2.9,5.6,5.3,8.9,7.1c-0.2,0.1-0.3,0.1-0.5,0.2&#10;&#9;&#9;&#9;&#9;&#9;c-0.3,0.1-0.5,0.3-0.8,0.4c-3.5,1.8-7.4,4.7-8.4,8.5c-0.3,1.3,0.3,2.3,1.4,2.8c4.7,2,10.7,0.3,15.2-1.5c1-0.4,2.1-0.9,3.1-1.4&#10;&#9;&#9;&#9;&#9;&#9;c-0.1,0.3-0.2,0.6-0.2,0.9c-1.1,5-0.7,10.1,1.6,14.7c0.4,0.8,1.5,1.5,2.4,1.2c4.5-1.6,5-7.4,5.4-11.5c0.2-2.1,0.3-4.4,0.1-6.6&#10;&#9;&#9;&#9;&#9;&#9;c3.6,5.3,8.6,9.5,15.3,8.3c1.5-0.3,2.2-1.9,1.6-3.2c-1.9-4-4.7-7.6-8-10.5c-1.2-1-2.5-2-3.9-2.8c2-0.1,3.9-0.6,5.8-1.2&#10;&#9;&#9;&#9;&#9;&#9;c2.8-1,5.2-2.7,7.4-4.6c1-0.9,2.2-1.9,2.6-3.2C707,82.4,705.7,80.8,704.1,80.2z" style="fill-rule: evenodd; clip-rule: evenodd; fill: rgb(255, 204, 51);"/>
			</g>
		</g>
	</g></svg>